<svg width="195" height="19" viewBox="0 0 195 19" fill="none" xmlns="http://www.w3.org/2000/svg">
<path d="M1.10352 9.79492V7.95898H4.89258C5.8431 7.95898 6.57878 7.71484 7.09961 7.22656C7.62044 6.73177 7.88086 6.04818 7.88086 5.17578V5.15625C7.88086 4.27083 7.62044 3.58398 7.09961 3.0957C6.57878 2.60742 5.8431 2.36328 4.89258 2.36328H1.10352V0.517578H5.43945C6.36393 0.517578 7.17448 0.712891 7.87109 1.10352C8.57422 1.48763 9.12435 2.02799 9.52148 2.72461C9.91862 3.41471 10.1172 4.21875 10.1172 5.13672V5.15625C10.1172 6.07422 9.91862 6.88477 9.52148 7.58789C9.12435 8.28451 8.57422 8.82812 7.87109 9.21875C7.17448 9.60286 6.36393 9.79492 5.43945 9.79492H1.10352ZM0 14.6094V0.517578H2.19727V14.6094H0ZM16.6211 14.8145C15.599 14.8145 14.7135 14.5964 13.9648 14.1602C13.2161 13.7174 12.64 13.0892 12.2363 12.2754C11.8327 11.4551 11.6309 10.4818 11.6309 9.35547V9.33594C11.6309 8.20312 11.8327 7.22982 12.2363 6.41602C12.6465 5.60221 13.2227 4.97721 13.9648 4.54102C14.7135 4.09831 15.5957 3.87695 16.6113 3.87695C17.64 3.87695 18.5254 4.09831 19.2676 4.54102C20.0098 4.97721 20.5827 5.60221 20.9863 6.41602C21.3965 7.22982 21.6016 8.20312 21.6016 9.33594V9.35547C21.6016 10.4818 21.3997 11.4551 20.9961 12.2754C20.5924 13.0892 20.0163 13.7174 19.2676 14.1602C18.5254 14.5964 17.6432 14.8145 16.6211 14.8145ZM16.6211 13.0371C17.2135 13.0371 17.7181 12.8906 18.1348 12.5977C18.5514 12.3047 18.8704 11.8848 19.0918 11.3379C19.3197 10.791 19.4336 10.1302 19.4336 9.35547V9.33594C19.4336 8.55469 19.3197 7.89062 19.0918 7.34375C18.8704 6.79688 18.5482 6.38021 18.125 6.09375C17.7083 5.80078 17.2038 5.6543 16.6113 5.6543C16.0254 5.6543 15.5208 5.80078 15.0977 6.09375C14.681 6.38021 14.3587 6.79688 14.1309 7.34375C13.9095 7.89062 13.7988 8.55469 13.7988 9.33594V9.35547C13.7988 10.1302 13.9095 10.7943 14.1309 11.3477C14.3587 11.8945 14.681 12.3145 15.0977 12.6074C15.5208 12.8939 16.0286 13.0371 16.6211 13.0371ZM25.6348 14.6094L22.7441 4.08203H24.873L26.7578 12.2461H26.8945L29.0723 4.08203H31.0938L33.2715 12.2461H33.3984L35.293 4.08203H37.3926L34.502 14.6094H32.3047L30.127 6.74805H29.9902L27.8125 14.6094H25.6348ZM43.457 14.8145C42.4284 14.8145 41.543 14.5931 40.8008 14.1504C40.0651 13.7077 39.4987 13.0794 39.1016 12.2656C38.7044 11.4518 38.5059 10.4883 38.5059 9.375V9.36523C38.5059 8.26497 38.7044 7.30469 39.1016 6.48438C39.4987 5.66406 40.0586 5.02604 40.7812 4.57031C41.5104 4.10807 42.3665 3.87695 43.3496 3.87695C44.3327 3.87695 45.179 4.09831 45.8887 4.54102C46.5983 4.98372 47.1419 5.60221 47.5195 6.39648C47.9036 7.18424 48.0957 8.10547 48.0957 9.16016V9.90234H39.5801V8.38867H47.0508L46.0254 9.78516V8.95508C46.0254 8.19987 45.9115 7.57812 45.6836 7.08984C45.4557 6.59505 45.14 6.22721 44.7363 5.98633C44.3392 5.73893 43.8802 5.61523 43.3594 5.61523C42.8385 5.61523 42.373 5.74219 41.9629 5.99609C41.5527 6.25 41.2272 6.6276 40.9863 7.12891C40.752 7.6237 40.6348 8.23242 40.6348 8.95508V9.79492C40.6348 10.485 40.752 11.0742 40.9863 11.5625C41.2207 12.0508 41.5527 12.4251 41.9824 12.6855C42.4121 12.946 42.9199 13.0762 43.5059 13.0762C43.9486 13.0762 44.3327 13.0111 44.6582 12.8809C44.9902 12.7507 45.2604 12.5911 45.4688 12.4023C45.6771 12.207 45.8236 12.0085 45.9082 11.8066L45.9375 11.7285H47.9785L47.959 11.8164C47.8743 12.181 47.7181 12.5423 47.4902 12.9004C47.2624 13.252 46.9596 13.5742 46.582 13.8672C46.2109 14.1536 45.7617 14.3848 45.2344 14.5605C44.7135 14.7298 44.1211 14.8145 43.457 14.8145ZM50.4004 14.6094V4.08203H52.5293V5.72266H52.666C52.8483 5.14323 53.1706 4.69401 53.6328 4.375C54.0951 4.05599 54.6647 3.89648 55.3418 3.89648C55.5111 3.89648 55.6738 3.90625 55.8301 3.92578C55.9928 3.94531 56.123 3.96484 56.2207 3.98438V5.94727C56.0579 5.9082 55.8854 5.87891 55.7031 5.85938C55.5208 5.83333 55.3288 5.82031 55.127 5.82031C54.6061 5.82031 54.1504 5.92448 53.7598 6.13281C53.3691 6.33464 53.0664 6.62435 52.8516 7.00195C52.6367 7.37305 52.5293 7.8125 52.5293 8.32031V14.6094H50.4004ZM62.207 14.8145C61.1784 14.8145 60.293 14.5931 59.5508 14.1504C58.8151 13.7077 58.2487 13.0794 57.8516 12.2656C57.4544 11.4518 57.2559 10.4883 57.2559 9.375V9.36523C57.2559 8.26497 57.4544 7.30469 57.8516 6.48438C58.2487 5.66406 58.8086 5.02604 59.5312 4.57031C60.2604 4.10807 61.1165 3.87695 62.0996 3.87695C63.0827 3.87695 63.929 4.09831 64.6387 4.54102C65.3483 4.98372 65.8919 5.60221 66.2695 6.39648C66.6536 7.18424 66.8457 8.10547 66.8457 9.16016V9.90234H58.3301V8.38867H65.8008L64.7754 9.78516V8.95508C64.7754 8.19987 64.6615 7.57812 64.4336 7.08984C64.2057 6.59505 63.89 6.22721 63.4863 5.98633C63.0892 5.73893 62.6302 5.61523 62.1094 5.61523C61.5885 5.61523 61.123 5.74219 60.7129 5.99609C60.3027 6.25 59.9772 6.6276 59.7363 7.12891C59.502 7.6237 59.3848 8.23242 59.3848 8.95508V9.79492C59.3848 10.485 59.502 11.0742 59.7363 11.5625C59.9707 12.0508 60.3027 12.4251 60.7324 12.6855C61.1621 12.946 61.6699 13.0762 62.2559 13.0762C62.6986 13.0762 63.0827 13.0111 63.4082 12.8809C63.7402 12.7507 64.0104 12.5911 64.2188 12.4023C64.4271 12.207 64.5736 12.0085 64.6582 11.8066L64.6875 11.7285H66.7285L66.709 11.8164C66.6243 12.181 66.4681 12.5423 66.2402 12.9004C66.0124 13.252 65.7096 13.5742 65.332 13.8672C64.9609 14.1536 64.5117 14.3848 63.9844 14.5605C63.4635 14.7298 62.8711 14.8145 62.207 14.8145ZM73.0176 14.7949C72.1322 14.7949 71.3607 14.5736 70.7031 14.1309C70.0456 13.6816 69.5378 13.0501 69.1797 12.2363C68.8216 11.4225 68.6426 10.4622 68.6426 9.35547V9.33594C68.6426 8.22266 68.8216 7.25911 69.1797 6.44531C69.5378 5.63151 70.0423 5.00326 70.6934 4.56055C71.3509 4.11784 72.1224 3.89648 73.0078 3.89648C73.4961 3.89648 73.9486 3.97461 74.3652 4.13086C74.7884 4.2806 75.1628 4.49544 75.4883 4.77539C75.8138 5.05534 76.071 5.38737 76.2598 5.77148H76.3965V0H78.5254V14.6094H76.3965V12.9199H76.2598C76.0579 13.3105 75.7975 13.6458 75.4785 13.9258C75.1595 14.2057 74.7917 14.4206 74.375 14.5703C73.9648 14.7201 73.5124 14.7949 73.0176 14.7949ZM73.6035 12.9785C74.1829 12.9785 74.6842 12.832 75.1074 12.5391C75.5306 12.2396 75.8561 11.8197 76.084 11.2793C76.3118 10.7389 76.4258 10.0977 76.4258 9.35547V9.33594C76.4258 8.58724 76.3086 7.94271 76.0742 7.40234C75.8464 6.86198 75.5208 6.44531 75.0977 6.15234C74.681 5.85938 74.1829 5.71289 73.6035 5.71289C73.0306 5.71289 72.5326 5.85938 72.1094 6.15234C71.6927 6.44531 71.3704 6.86198 71.1426 7.40234C70.9212 7.9362 70.8105 8.58073 70.8105 9.33594V9.35547C70.8105 10.1042 70.9212 10.7487 71.1426 11.2891C71.3704 11.8294 71.6927 12.2461 72.1094 12.5391C72.526 12.832 73.0241 12.9785 73.6035 12.9785ZM92.1582 14.7949C91.6634 14.7949 91.2077 14.7201 90.791 14.5703C90.3743 14.4206 90.0065 14.2057 89.6875 13.9258C89.375 13.6458 89.1146 13.3105 88.9062 12.9199H88.7695V14.6094H86.6504V0H88.7695V5.77148H88.9062C89.1016 5.38737 89.3587 5.05534 89.6777 4.77539C90.0033 4.49544 90.3776 4.2806 90.8008 4.13086C91.224 3.97461 91.6764 3.89648 92.1582 3.89648C93.0501 3.89648 93.8216 4.11784 94.4727 4.56055C95.1302 5.00326 95.638 5.63151 95.9961 6.44531C96.3542 7.25911 96.5332 8.22266 96.5332 9.33594V9.35547C96.5332 10.4622 96.3509 11.4225 95.9863 12.2363C95.6283 13.0501 95.1204 13.6816 94.4629 14.1309C93.8118 14.5736 93.0436 14.7949 92.1582 14.7949ZM91.5625 12.9785C92.1484 12.9785 92.6497 12.832 93.0664 12.5391C93.4831 12.2461 93.8021 11.8294 94.0234 11.2891C94.2513 10.7487 94.3652 10.1042 94.3652 9.35547V9.33594C94.3652 8.58073 94.2513 7.9362 94.0234 7.40234C93.8021 6.86198 93.4831 6.44531 93.0664 6.15234C92.6497 5.85938 92.1484 5.71289 91.5625 5.71289C90.9896 5.71289 90.4915 5.85938 90.0684 6.15234C89.6452 6.44531 89.3164 6.86198 89.082 7.40234C88.8542 7.94271 88.7402 8.58724 88.7402 9.33594V9.35547C88.7402 10.0977 88.8542 10.7389 89.082 11.2793C89.3164 11.8197 89.6452 12.2396 90.0684 12.5391C90.4915 12.832 90.9896 12.9785 91.5625 12.9785ZM99.5117 18.2617C99.362 18.2617 99.2057 18.2552 99.043 18.2422C98.8802 18.2357 98.7305 18.2227 98.5938 18.2031V16.543C98.6979 16.556 98.8118 16.5658 98.9355 16.5723C99.0592 16.5853 99.1829 16.5918 99.3066 16.5918C99.8014 16.5918 100.199 16.4811 100.498 16.2598C100.804 16.0449 101.038 15.6738 101.201 15.1465L101.367 14.6191L97.5391 4.08203H99.834L102.764 13.4668L102.168 12.5293H102.92L102.334 13.4668L105.254 4.08203H107.49L103.574 15.0293C103.288 15.8431 102.965 16.4844 102.607 16.9531C102.249 17.4284 101.82 17.7637 101.318 17.959C100.824 18.1608 100.221 18.2617 99.5117 18.2617ZM120.762 14.9316C119.759 14.9316 118.854 14.7591 118.047 14.4141C117.246 14.069 116.559 13.5775 115.986 12.9395C115.42 12.2949 114.984 11.5202 114.678 10.6152C114.378 9.70378 114.229 8.68164 114.229 7.54883V7.5293C114.229 6.03841 114.495 4.74609 115.029 3.65234C115.563 2.55208 116.318 1.70247 117.295 1.10352C118.271 0.498047 119.421 0.195312 120.742 0.195312C121.816 0.195312 122.77 0.38737 123.604 0.771484C124.437 1.1556 125.12 1.6862 125.654 2.36328C126.195 3.04036 126.549 3.82487 126.719 4.7168L126.748 4.83398H124.531L124.502 4.73633C124.242 3.90299 123.786 3.26172 123.135 2.8125C122.49 2.36328 121.693 2.13867 120.742 2.13867C119.87 2.13867 119.111 2.36003 118.467 2.80273C117.829 3.23893 117.334 3.86068 116.982 4.66797C116.637 5.46875 116.465 6.41927 116.465 7.51953V7.53906C116.465 8.37891 116.566 9.13411 116.768 9.80469C116.969 10.4753 117.256 11.0482 117.627 11.5234C118.005 11.9922 118.46 12.3535 118.994 12.6074C119.528 12.8613 120.127 12.9883 120.791 12.9883C121.553 12.9883 122.223 12.8385 122.803 12.5391C123.389 12.2331 123.844 11.8099 124.17 11.2695C124.502 10.7292 124.671 10.0977 124.678 9.375V9.08203H121.035V7.31445H126.846V8.98438C126.846 9.88932 126.702 10.7096 126.416 11.4453C126.136 12.1745 125.729 12.7995 125.195 13.3203C124.668 13.8411 124.03 14.2415 123.281 14.5215C122.533 14.7949 121.693 14.9316 120.762 14.9316ZM133.887 14.8145C132.865 14.8145 131.979 14.5964 131.23 14.1602C130.482 13.7174 129.906 13.0892 129.502 12.2754C129.098 11.4551 128.896 10.4818 128.896 9.35547V9.33594C128.896 8.20312 129.098 7.22982 129.502 6.41602C129.912 5.60221 130.488 4.97721 131.23 4.54102C131.979 4.09831 132.861 3.87695 133.877 3.87695C134.906 3.87695 135.791 4.09831 136.533 4.54102C137.275 4.97721 137.848 5.60221 138.252 6.41602C138.662 7.22982 138.867 8.20312 138.867 9.33594V9.35547C138.867 10.4818 138.665 11.4551 138.262 12.2754C137.858 13.0892 137.282 13.7174 136.533 14.1602C135.791 14.5964 134.909 14.8145 133.887 14.8145ZM133.887 13.0371C134.479 13.0371 134.984 12.8906 135.4 12.5977C135.817 12.3047 136.136 11.8848 136.357 11.3379C136.585 10.791 136.699 10.1302 136.699 9.35547V9.33594C136.699 8.55469 136.585 7.89062 136.357 7.34375C136.136 6.79688 135.814 6.38021 135.391 6.09375C134.974 5.80078 134.469 5.6543 133.877 5.6543C133.291 5.6543 132.786 5.80078 132.363 6.09375C131.947 6.38021 131.624 6.79688 131.396 7.34375C131.175 7.89062 131.064 8.55469 131.064 9.33594V9.35547C131.064 10.1302 131.175 10.7943 131.396 11.3477C131.624 11.8945 131.947 12.3145 132.363 12.6074C132.786 12.8939 133.294 13.0371 133.887 13.0371ZM141.426 14.6094V0.517578H150.234V2.41211H143.623V6.86523H149.678V8.71094H143.623V14.6094H141.426ZM154.941 14.7949C154.264 14.7949 153.662 14.6647 153.135 14.4043C152.614 14.1439 152.201 13.7793 151.895 13.3105C151.595 12.8353 151.445 12.2786 151.445 11.6406V11.6211C151.445 10.9961 151.598 10.4622 151.904 10.0195C152.21 9.57031 152.656 9.21875 153.242 8.96484C153.828 8.70443 154.538 8.55143 155.371 8.50586L159.277 8.27148V9.76562L155.654 9.99023C154.951 10.0293 154.427 10.1823 154.082 10.4492C153.737 10.7161 153.564 11.0807 153.564 11.543V11.5625C153.564 12.0443 153.747 12.4219 154.111 12.6953C154.476 12.9622 154.945 13.0957 155.518 13.0957C156.032 13.0957 156.494 12.9915 156.904 12.7832C157.314 12.5684 157.637 12.2819 157.871 11.9238C158.105 11.5658 158.223 11.1589 158.223 10.7031V7.43164C158.223 6.85872 158.04 6.41602 157.676 6.10352C157.318 5.79102 156.79 5.63477 156.094 5.63477C155.495 5.63477 155.01 5.74544 154.639 5.9668C154.268 6.18164 154.023 6.48112 153.906 6.86523L153.887 6.91406H151.855L151.865 6.82617C151.943 6.24674 152.168 5.73568 152.539 5.29297C152.917 4.85026 153.411 4.50521 154.023 4.25781C154.642 4.00391 155.358 3.87695 156.172 3.87695C157.051 3.87695 157.799 4.02018 158.418 4.30664C159.043 4.58659 159.518 4.99023 159.844 5.51758C160.169 6.03841 160.332 6.66341 160.332 7.39258V14.6094H158.223V13.0762H158.086C157.878 13.4342 157.617 13.7435 157.305 14.0039C156.992 14.2578 156.637 14.4531 156.24 14.5898C155.843 14.7266 155.41 14.7949 154.941 14.7949ZM166.953 14.8145C166.1 14.8145 165.361 14.6875 164.736 14.4336C164.111 14.1797 163.613 13.8281 163.242 13.3789C162.878 12.9232 162.663 12.3958 162.598 11.7969L162.588 11.7676H164.707L164.717 11.7969C164.847 12.2135 165.101 12.5488 165.479 12.8027C165.856 13.0501 166.361 13.1738 166.992 13.1738C167.428 13.1738 167.806 13.1152 168.125 12.998C168.451 12.8743 168.704 12.7051 168.887 12.4902C169.069 12.2754 169.16 12.0247 169.16 11.7383V11.7188C169.16 11.3867 169.03 11.11 168.77 10.8887C168.516 10.6673 168.089 10.485 167.49 10.3418L165.811 9.96094C165.146 9.80469 164.596 9.59961 164.16 9.3457C163.724 9.08529 163.398 8.76628 163.184 8.38867C162.975 8.00456 162.871 7.55534 162.871 7.04102V7.03125C162.871 6.41276 163.044 5.86914 163.389 5.40039C163.74 4.92513 164.225 4.55404 164.844 4.28711C165.462 4.01367 166.169 3.87695 166.963 3.87695C167.77 3.87695 168.473 4.00716 169.072 4.26758C169.671 4.52148 170.143 4.87305 170.488 5.32227C170.833 5.76497 171.035 6.27604 171.094 6.85547V6.89453H169.072V6.86523C168.981 6.47461 168.753 6.15234 168.389 5.89844C168.031 5.64453 167.552 5.51758 166.953 5.51758C166.569 5.51758 166.23 5.57617 165.938 5.69336C165.645 5.81055 165.413 5.97331 165.244 6.18164C165.081 6.38997 165 6.63737 165 6.92383V6.94336C165 7.1582 165.055 7.35026 165.166 7.51953C165.277 7.68229 165.452 7.82878 165.693 7.95898C165.934 8.08268 166.247 8.1901 166.631 8.28125L168.311 8.67188C169.339 8.90625 170.094 9.2513 170.576 9.70703C171.064 10.1562 171.309 10.7617 171.309 11.5234V11.543C171.309 12.194 171.12 12.7669 170.742 13.2617C170.365 13.75 169.847 14.1309 169.189 14.4043C168.538 14.6777 167.793 14.8145 166.953 14.8145ZM177.48 14.707C176.354 14.707 175.534 14.4824 175.02 14.0332C174.505 13.584 174.248 12.8516 174.248 11.8359V5.76172H172.637V4.08203H174.248V1.40625H176.416V4.08203H178.613V5.76172H176.416V11.416C176.416 11.9694 176.53 12.3665 176.758 12.6074C176.992 12.8483 177.36 12.9688 177.861 12.9688C178.011 12.9688 178.141 12.9655 178.252 12.959C178.363 12.946 178.483 12.9362 178.613 12.9297V14.6094C178.457 14.6354 178.281 14.6582 178.086 14.6777C177.891 14.6973 177.689 14.707 177.48 14.707ZM180.908 14.6094V4.08203H183.037V5.72266H183.174C183.356 5.14323 183.678 4.69401 184.141 4.375C184.603 4.05599 185.173 3.89648 185.85 3.89648C186.019 3.89648 186.182 3.90625 186.338 3.92578C186.501 3.94531 186.631 3.96484 186.729 3.98438V5.94727C186.566 5.9082 186.393 5.87891 186.211 5.85938C186.029 5.83333 185.837 5.82031 185.635 5.82031C185.114 5.82031 184.658 5.92448 184.268 6.13281C183.877 6.33464 183.574 6.62435 183.359 7.00195C183.145 7.37305 183.037 7.8125 183.037 8.32031V14.6094H180.908ZM188.701 14.6094V4.08203H190.83V5.72266H190.967C191.149 5.14323 191.471 4.69401 191.934 4.375C192.396 4.05599 192.965 3.89648 193.643 3.89648C193.812 3.89648 193.975 3.90625 194.131 3.92578C194.294 3.94531 194.424 3.96484 194.521 3.98438V5.94727C194.359 5.9082 194.186 5.87891 194.004 5.85938C193.822 5.83333 193.63 5.82031 193.428 5.82031C192.907 5.82031 192.451 5.92448 192.061 6.13281C191.67 6.33464 191.367 6.62435 191.152 7.00195C190.938 7.37305 190.83 7.8125 190.83 8.32031V14.6094H188.701Z" fill="#828388"/>
</svg>
