<svg width="28" height="28" viewBox="0 0 28 28" fill="none" xmlns="http://www.w3.org/2000/svg">
<path d="M13.8639 3.50785L14 3.5C14.5983 3.5 15.0914 3.95038 15.1588 4.53061L15.1667 4.66667V12.8333H23.3333C23.9316 12.8333 24.4248 13.2837 24.4922 13.8639L24.5 14C24.5 14.5983 24.0496 15.0914 23.4694 15.1588L23.3333 15.1667H15.1667V23.3333C15.1667 23.9316 14.7163 24.4248 14.1361 24.4922L14 24.5C13.4017 24.5 12.9086 24.0496 12.8412 23.4694L12.8333 23.3333V15.1667H4.66667C4.06836 15.1667 3.57524 14.7163 3.50785 14.1361L3.5 14C3.5 13.4017 3.95038 12.9086 4.53061 12.8412L4.66667 12.8333H12.8333V4.66667C12.8333 4.06836 13.2837 3.57524 13.8639 3.50785L14 3.5L13.8639 3.50785Z" fill="#242424"/>
</svg>
