<svg width="30" height="30" viewBox="0 0 30 30" fill="none" xmlns="http://www.w3.org/2000/svg">
<path d="M8.82069 3.02256L10.2794 2.58286C11.9326 2.08456 13.6988 2.88985 14.4068 4.46464L15.5338 6.97179C16.1373 8.31408 15.8193 9.89158 14.743 10.8953L12.8751 12.6371C12.8205 12.688 12.7859 12.7568 12.7776 12.831C12.7222 13.3274 13.0587 14.2941 13.8341 15.637C14.3979 16.6136 14.9082 17.2984 15.3425 17.6836C15.6452 17.952 15.8118 18.01 15.8827 17.9889L18.3956 17.2206C19.8026 16.7905 21.3273 17.3034 22.1882 18.4965L23.7891 20.7153C24.7968 22.1118 24.6156 24.0384 23.3652 25.2225L22.2573 26.2718C21.0617 27.404 19.3598 27.8259 17.7739 27.3833C14.3313 26.4223 11.2446 23.5172 8.47977 18.7283C5.71109 13.9328 4.7396 9.80229 5.63516 6.33755C6.045 4.75195 7.25266 3.49521 8.82069 3.02256ZM9.36182 4.81778C8.421 5.10137 7.6964 5.85541 7.4505 6.80677C6.69719 9.72117 7.55826 13.3822 10.1036 17.7908C12.6455 22.1936 15.3817 24.7689 18.2779 25.5773C19.2295 25.8429 20.2507 25.5897 20.968 24.9104L22.0759 23.8612C22.6443 23.3229 22.7266 22.4472 22.2686 21.8124L20.6677 19.5937C20.2764 19.0513 19.5833 18.8182 18.9438 19.0137L16.4246 19.7839C14.9625 20.2197 13.6354 19.0429 12.2103 16.5745C11.2499 14.9111 10.8023 13.6253 10.9142 12.6228C10.9722 12.1035 11.2142 11.6222 11.5963 11.2658L13.4642 9.52398C13.9534 9.06776 14.098 8.35071 13.8237 7.74058L12.6966 5.23343C12.3748 4.51762 11.572 4.15158 10.8206 4.37808L9.36182 4.81778Z" fill="#242424"/>
</svg>
