<svg width="30" height="30" viewBox="0 0 30 30" fill="none" xmlns="http://www.w3.org/2000/svg">
<path d="M3.125 5.3125C3.125 4.79473 3.54473 4.375 4.0625 4.375H4.76033C5.94841 4.375 6.65978 5.17374 7.06656 5.91624C7.33771 6.41118 7.53385 6.98522 7.68728 7.50494C7.72883 7.50167 7.77092 7.5 7.8135 7.5H23.4351C24.4729 7.5 25.2223 8.49302 24.9377 9.491L22.6531 17.5024C22.232 18.979 20.8828 19.9972 19.3473 19.9972H11.9122C10.3641 19.9972 9.007 18.9624 8.59729 17.4695L7.64667 14.0057L6.07343 8.69473L6.07087 8.68542C5.87625 7.97564 5.69358 7.31256 5.42216 6.81712C5.15858 6.336 4.94846 6.25 4.76033 6.25H4.0625C3.54473 6.25 3.125 5.83027 3.125 5.3125ZM9.46603 13.5503L10.4054 16.9732C10.5917 17.6518 11.2085 18.1222 11.9122 18.1222H19.3473C20.0453 18.1222 20.6585 17.6594 20.8499 16.9882L23.021 9.375H8.23186L9.44883 13.4835C9.45542 13.5058 9.46115 13.528 9.46603 13.5503ZM13.75 23.75C13.75 25.1307 12.6307 26.25 11.25 26.25C9.86929 26.25 8.75 25.1307 8.75 23.75C8.75 22.3693 9.86929 21.25 11.25 21.25C12.6307 21.25 13.75 22.3693 13.75 23.75ZM11.875 23.75C11.875 23.4048 11.5952 23.125 11.25 23.125C10.9048 23.125 10.625 23.4048 10.625 23.75C10.625 24.0952 10.9048 24.375 11.25 24.375C11.5952 24.375 11.875 24.0952 11.875 23.75ZM22.5 23.75C22.5 25.1307 21.3807 26.25 20 26.25C18.6193 26.25 17.5 25.1307 17.5 23.75C17.5 22.3693 18.6193 21.25 20 21.25C21.3807 21.25 22.5 22.3693 22.5 23.75ZM20.625 23.75C20.625 23.4048 20.3452 23.125 20 23.125C19.6548 23.125 19.375 23.4048 19.375 23.75C19.375 24.0952 19.6548 24.375 20 24.375C20.3452 24.375 20.625 24.0952 20.625 23.75Z" fill="#242424"/>
</svg>
