<svg width="80" height="80" viewBox="0 0 80 80" fill="none" xmlns="http://www.w3.org/2000/svg">
<circle cx="40" cy="40" r="40" fill="#828388" fill-opacity="0.1"/>
<path d="M28.499 21C26.0137 21 23.999 23.0147 23.999 25.5V56.5C23.999 58.9853 26.0137 61 28.499 61H43.4999C45.9711 61 47.977 59.0081 47.9997 56.5424L48.0003 56.5002V53.5002C48.0003 52.6718 47.3287 52.0002 46.5003 52.0002C45.5927 52.0002 45.0216 51.7561 44.6266 51.4385C44.2105 51.104 43.8675 50.588 43.6047 49.8601C43.0593 48.3503 43.0005 46.3593 43.0003 44.5001C43.0003 44.1202 42.8561 43.7544 42.5969 43.4767C42.4443 43.3133 42.3418 43.2025 42.268 43.1228C42.0872 42.9273 42.0787 42.9181 41.9271 42.7755C41.7792 42.6364 41.3278 42.2053 39.561 40.4393C38.624 39.5027 38.1044 38.7103 37.9344 38.1047C37.8566 37.8275 37.8606 37.6204 37.9033 37.4538C37.9457 37.2886 38.0497 37.0715 38.3126 36.8085C38.5755 36.5455 38.7919 36.4421 38.9562 36.4001C39.1217 36.3577 39.328 36.3537 39.6048 36.4318C40.2099 36.6025 41.0019 37.1231 41.9393 38.061C43.0184 39.1409 44.044 40.1551 44.9627 41.0636C46.4817 42.5657 47.7098 43.7802 48.4038 44.5237C48.9691 45.1293 49.9183 45.162 50.5239 44.5968C51.1295 44.0315 51.1622 43.0823 50.5969 42.4767C50.0279 41.8671 49.1132 40.9519 47.9995 39.848L47.9993 33.1206L53.682 38.8033C54.5259 39.6472 55 40.7918 55 41.9853V59.5C55 60.3284 55.6716 61 56.5 61C57.3284 61 58 60.3284 58 59.5V41.9853C58 39.9962 57.2098 38.0885 55.8033 36.682L47.9992 28.8779L47.9991 25.4999C47.999 23.0146 45.9843 21 43.4991 21H28.499ZM40.7831 50.8792C40.9767 51.4154 41.2263 51.9475 41.5505 52.4435C40.0417 53.17 39.0003 54.7136 39.0003 56.5003V58H33.0003V56.5003C33.0003 54.015 30.9856 52.0003 28.5003 52.0003H26.999V29.9993H28.5003C30.9856 29.9993 33.0003 27.9846 33.0003 25.4993V24H39.0003V25.4993C39.0003 27.9846 41.015 29.9993 43.5003 29.9993H44.9992L44.9994 36.8762C44.6904 36.5688 44.3771 36.2564 44.0613 35.9404C42.9991 34.8775 41.7646 33.9239 40.4191 33.5444C39.7207 33.3475 38.9707 33.2995 38.2119 33.4938C37.76 33.6096 37.3379 33.8028 36.947 34.0633C36.6373 34.0215 36.3211 33.9998 35.9999 33.9998C32.1339 33.9998 28.9999 37.1338 28.9999 40.9998C28.9999 44.8658 32.1339 47.9998 35.9999 47.9998C37.5081 47.9998 38.9049 47.5229 40.0476 46.7115C40.1213 48.0799 40.3087 49.5659 40.7831 50.8792ZM31.9999 40.9998C31.9999 39.1683 33.2309 37.6243 34.9106 37.15C34.8268 37.7568 34.8881 38.3528 35.0461 38.9157C35.4242 40.2624 36.3767 41.4981 37.4402 42.5611C38.0036 43.1243 38.4362 43.5547 38.7701 43.8853C38.0513 44.5756 37.0752 44.9998 35.9999 44.9998C33.7908 44.9998 31.9999 43.209 31.9999 40.9998ZM26.999 25.5C26.999 24.6716 27.6706 24 28.499 24H30.0003V25.4993C30.0003 26.3278 29.3288 26.9993 28.5003 26.9993H26.999V25.5ZM42.0003 24H43.4991C44.3275 24 44.9991 24.6715 44.9991 25.5L44.9991 26.9993H43.5003C42.6719 26.9993 42.0003 26.3278 42.0003 25.4993V24ZM44.9999 55.0003L44.9999 56.5C44.9999 57.3284 44.3284 58 43.4999 58H42.0003V56.5003C42.0003 55.6719 42.6719 55.0003 43.5003 55.0003H44.9999ZM30.0003 58H28.499C27.6706 58 26.999 57.3284 26.999 56.5V55.0003H28.5003C29.3288 55.0003 30.0003 55.6719 30.0003 56.5003V58Z" fill="#828388"/>
</svg>
