<svg width="30" height="31" viewBox="0 0 30 31" fill="none" xmlns="http://www.w3.org/2000/svg">
<path d="M13.0991 6.31042C13.549 5.88188 14.2611 5.89918 14.6896 6.34907L22.1916 14.2248C22.6055 14.6593 22.6055 15.3421 22.1916 15.7766L14.6896 23.6523C14.2611 24.1022 13.549 24.1195 13.0991 23.691C12.6492 23.2624 12.6319 22.5503 13.0604 22.1005L19.8233 15.0007L13.0604 7.90094C12.6319 7.45105 12.6492 6.73895 13.0991 6.31042ZM7.09907 6.31042C7.54895 5.88188 8.26105 5.89918 8.68959 6.34907L16.1916 14.2248C16.6055 14.6593 16.6055 15.3421 16.1916 15.7766L8.68959 23.6523C8.26105 24.1022 7.54895 24.1195 7.09907 23.691C6.64918 23.2624 6.63188 22.5503 7.06042 22.1005L13.8233 15.0007L7.06042 7.90094C6.63188 7.45105 6.64918 6.73895 7.09907 6.31042Z" fill="#888888"/>
</svg>
