<svg width="18" height="18" viewBox="0 0 18 18" fill="none" xmlns="http://www.w3.org/2000/svg">
<path d="M16.7394 2.59942C16.8827 2.46111 16.9971 2.29565 17.0758 2.11268C17.1545 1.92971 17.196 1.7329 17.1978 1.53374C17.1996 1.33457 17.1618 1.13703 17.0864 0.952654C17.0111 0.768274 16.8998 0.600744 16.759 0.45984C16.6182 0.318935 16.4508 0.207477 16.2665 0.131968C16.0822 0.0564601 15.8847 0.0184146 15.6855 0.0200508C15.4864 0.021687 15.2895 0.0629723 15.1065 0.141498C14.9234 0.220024 14.7579 0.334218 14.6194 0.477417L8.60742 6.48742L2.59742 0.477417C2.46009 0.330043 2.29449 0.211839 2.11049 0.129855C1.92649 0.047871 1.72787 0.00378701 1.52646 0.00023344C1.32506 -0.00332013 1.125 0.0337296 0.938222 0.109172C0.751445 0.184614 0.581778 0.296903 0.43934 0.43934C0.296903 0.581778 0.184614 0.751444 0.109172 0.938221C0.0337296 1.125 -0.00332013 1.32506 0.00023344 1.52646C0.00378701 1.72787 0.047871 1.92649 0.129855 2.11049C0.211839 2.29449 0.330043 2.46009 0.477417 2.59742L6.48342 8.60942L0.473417 14.6194C0.208457 14.9038 0.0642102 15.2799 0.0710666 15.6685C0.0779231 16.0571 0.235348 16.4278 0.510174 16.7027C0.785 16.9775 1.15577 17.1349 1.54437 17.1418C1.93297 17.1486 2.30907 17.0044 2.59342 16.7394L8.60742 10.7294L14.6174 16.7414C14.9018 17.0064 15.2779 17.1506 15.6665 17.1438C16.0551 17.1369 16.4258 16.9795 16.7007 16.7047C16.9755 16.4298 17.1329 16.0591 17.1398 15.6705C17.1466 15.2819 17.0024 14.9058 16.7374 14.6214L10.7314 8.60942L16.7394 2.59942Z" fill="#222222"/>
</svg>
