<svg width="40" height="40" viewBox="0 0 40 40" fill="none" xmlns="http://www.w3.org/2000/svg">
<path d="M32.9163 3.3335C34.9874 3.3335 36.6663 5.01243 36.6663 7.0835V16.1868C36.6663 17.6231 36.0958 19.0007 35.0803 20.0165L35.0366 20.0601C33.3452 18.9676 31.33 18.3335 29.1666 18.3335C23.1835 18.3335 18.3333 23.1837 18.3333 29.1668C18.3333 31.2839 18.9405 33.259 19.9904 34.9277C17.8954 36.2617 15.084 36.0165 13.2513 34.1906L5.81511 26.7656C3.69766 24.6523 3.69495 21.2225 5.80882 19.1054L19.9749 4.92239C20.9909 3.90511 22.3697 3.3335 23.8075 3.3335H32.9163ZM28.3329 9.17046C26.9523 9.17046 25.833 10.2897 25.833 11.6704C25.833 13.0511 26.9523 14.1704 28.3329 14.1704C29.7136 14.1704 30.8329 13.0511 30.8329 11.6704C30.8329 10.2897 29.7136 9.17046 28.3329 9.17046ZM38.3333 29.1668C38.3333 34.2294 34.2292 38.3335 29.1666 38.3335C24.104 38.3335 20 34.2294 20 29.1668C20 24.1042 24.104 20.0002 29.1666 20.0002C34.2292 20.0002 38.3333 24.1042 38.3333 29.1668ZM33.8835 24.4532C33.558 24.1278 33.0304 24.1278 32.705 24.4532L24.4554 32.7028C24.13 33.0282 24.13 33.5559 24.4554 33.8813C24.7808 34.2067 25.3085 34.2067 25.6339 33.8813L33.8835 25.6317C34.2089 25.3063 34.2089 24.7787 33.8835 24.4532ZM24.1666 26.6668C24.1666 26.2066 24.5397 25.8335 25 25.8335C25.4602 25.8335 25.8333 26.2066 25.8333 26.6668C25.8333 27.1271 25.4602 27.5002 25 27.5002C24.5397 27.5002 24.1666 27.1271 24.1666 26.6668ZM25 24.1668C23.6192 24.1668 22.5 25.2861 22.5 26.6668C22.5 28.0475 23.6192 29.1668 25 29.1668C26.3807 29.1668 27.5 28.0475 27.5 26.6668C27.5 25.2861 26.3807 24.1668 25 24.1668ZM33.3333 30.8335C32.8731 30.8335 32.5 31.2066 32.5 31.6668C32.5 32.1271 32.8731 32.5002 33.3333 32.5002C33.7935 32.5002 34.1666 32.1271 34.1666 31.6668C34.1666 31.2066 33.7935 30.8335 33.3333 30.8335ZM30.8333 31.6668C30.8333 33.0475 31.9526 34.1668 33.3333 34.1668C34.714 34.1668 35.8333 33.0475 35.8333 31.6668C35.8333 30.2861 34.714 29.1668 33.3333 29.1668C31.9526 29.1668 30.8333 30.2861 30.8333 31.6668Z" fill="#FCFDFC"/>
</svg>
