<svg width="34" height="27" viewBox="0 0 34 27" fill="none" xmlns="http://www.w3.org/2000/svg">
<path d="M5.41667 0C2.42512 0 0 2.42512 0 5.41667V21.25C0 24.2415 2.42512 26.6667 5.41667 26.6667H27.9167C30.9082 26.6667 33.3333 24.2415 33.3333 21.25V5.41667C33.3333 2.42512 30.9082 0 27.9167 0H5.41667ZM2.5 5.41667C2.5 3.80584 3.80584 2.5 5.41667 2.5H27.9167C29.5275 2.5 30.8333 3.80584 30.8333 5.41667V21.25C30.8333 22.8608 29.5275 24.1667 27.9167 24.1667H5.41667C3.80584 24.1667 2.5 22.8608 2.5 21.25V5.41667ZM5 6.25C5 5.55964 5.55964 5 6.25 5H15.4167C16.107 5 16.6667 5.55964 16.6667 6.25C16.6667 6.94036 16.107 7.5 15.4167 7.5H6.25C5.55964 7.5 5 6.94036 5 6.25ZM6.66667 15C5.74619 15 5 15.7462 5 16.6667V20C5 20.9205 5.74619 21.6667 6.66667 21.6667H18.3333C19.2538 21.6667 20 20.9205 20 20V16.6667C20 15.7462 19.2538 15 18.3333 15H6.66667ZM5 10.4167C5 9.72631 5.55964 9.16667 6.25 9.16667H23.75C24.4404 9.16667 25 9.72631 25 10.4167C25 11.107 24.4404 11.6667 23.75 11.6667H6.25C5.55964 11.6667 5 11.107 5 10.4167Z" fill="#5E6060"/>
</svg>
