<svg width="28" height="28" viewBox="0 0 28 28" fill="none" xmlns="http://www.w3.org/2000/svg">
<path d="M11.5 5.25H16.5C16.5 3.86929 15.3807 2.75 14 2.75C12.6193 2.75 11.5 3.86929 11.5 5.25ZM9.625 5.25C9.625 2.83375 11.5838 0.875 14 0.875C16.4162 0.875 18.375 2.83375 18.375 5.25H25.5625C26.0803 5.25 26.5 5.66973 26.5 6.1875C26.5 6.70527 26.0803 7.125 25.5625 7.125H23.9137L22.4486 22.264C22.2161 24.6667 20.1968 26.5 17.7829 26.5H10.2171C7.80317 26.5 5.78393 24.6667 5.55141 22.264L4.08635 7.125H2.4375C1.91973 7.125 1.5 6.70527 1.5 6.1875C1.5 5.66973 1.91973 5.25 2.4375 5.25H9.625ZM12.125 11.1875C12.125 10.6697 11.7053 10.25 11.1875 10.25C10.6697 10.25 10.25 10.6697 10.25 11.1875V20.5625C10.25 21.0803 10.6697 21.5 11.1875 21.5C11.7053 21.5 12.125 21.0803 12.125 20.5625V11.1875ZM16.8125 10.25C17.3303 10.25 17.75 10.6697 17.75 11.1875V20.5625C17.75 21.0803 17.3303 21.5 16.8125 21.5C16.2947 21.5 15.875 21.0803 15.875 20.5625V11.1875C15.875 10.6697 16.2947 10.25 16.8125 10.25ZM7.41769 22.0834C7.55721 23.525 8.76875 24.625 10.2171 24.625H17.7829C19.2313 24.625 20.4428 23.525 20.5823 22.0834L22.0299 7.125H5.97011L7.41769 22.0834Z" fill="#242424"/>
</svg>
