<svg width="23" height="26" viewBox="0 0 23 26" fill="none" xmlns="http://www.w3.org/2000/svg">
<path d="M3.29491 3.29487C7.68825 -1.09833 14.8119 -1.09825 19.2052 3.29487C23.5984 7.68825 23.5985 14.8118 19.2052 19.2052C19.2016 19.2088 19.1974 19.2121 19.1937 19.2157L13.2914 24.8888C12.151 25.9842 10.349 25.9834 9.2087 24.8878L3.30537 19.2157C3.30191 19.2123 3.29831 19.2086 3.29491 19.2052C-1.09824 14.8118 -1.09836 7.6882 3.29491 3.29487ZM18.0679 4.43117C14.3021 0.66601 8.19681 0.665714 4.43121 4.43117C0.665568 8.19688 0.665691 14.3031 4.43121 18.0689L10.323 23.7295C10.8414 24.2271 11.6599 24.2273 12.1782 23.7295L18.0721 18.0637C21.8334 14.2975 21.8322 8.19547 18.0679 4.43117ZM11.2501 6.4286C13.9129 6.4286 16.0715 8.58725 16.0715 11.25C16.0715 13.9128 13.9129 16.0715 11.2501 16.0715C8.58731 16.0714 6.42863 13.9128 6.42863 11.25C6.42866 8.58728 8.58733 6.42865 11.2501 6.4286ZM11.2501 8.03574C9.47493 8.0358 8.03581 9.47489 8.03578 11.25C8.03578 13.0252 9.47491 14.4643 11.2501 14.4643C13.0253 14.4643 14.4644 13.0252 14.4644 11.25C14.4643 9.47485 13.0253 8.03574 11.2501 8.03574Z" fill="#242424"/>
</svg>
