<svg width="35" height="35" viewBox="0 0 35 35" fill="none" xmlns="http://www.w3.org/2000/svg">
<path d="M0 5.625C0 2.5184 2.5184 0 5.625 0H26.875C29.9816 0 32.5 2.5184 32.5 5.625V16.6146C31.7503 15.9436 30.9101 15.3717 30 14.9194V10H2.5V26.875C2.5 28.6009 3.89911 30 5.625 30H14.9194C15.3717 30.9101 15.9436 31.7503 16.6146 32.5H5.625C2.5184 32.5 0 29.9816 0 26.875V5.625ZM30 7.5V5.625C30 3.89911 28.6009 2.5 26.875 2.5H5.625C3.89911 2.5 2.5 3.89911 2.5 5.625V7.5H30ZM25 34.375C19.8223 34.375 15.625 30.1777 15.625 25C15.625 19.8223 19.8223 15.625 25 15.625C30.1777 15.625 34.375 19.8223 34.375 25C34.375 30.1777 30.1777 34.375 25 34.375ZM24.6875 18.75C24.1697 18.75 23.75 19.1697 23.75 19.6875V25.3125C23.75 25.8303 24.1697 26.25 24.6875 26.25H29.0625C29.5803 26.25 30 25.8303 30 25.3125C30 24.7947 29.5803 24.375 29.0625 24.375H25.625V19.6875C25.625 19.1697 25.2053 18.75 24.6875 18.75Z" fill="#5E6060"/>
</svg>
