<svg width="80" height="80" viewBox="0 0 80 80" fill="none" xmlns="http://www.w3.org/2000/svg">
<circle cx="40" cy="40" r="40" fill="#828388" fill-opacity="0.1"/>
<path d="M19.5 26.0001C18.6716 26.0001 18 26.6716 18 27.5001V39.5001C18 41.9853 20.0147 44.0001 22.5 44.0001H32.5C34.9853 44.0001 37 41.9853 37 39.5001V27.5001C37 26.6716 36.3284 26.0001 35.5 26.0001H35.0002V24C35.0002 21.2386 32.7616 19 30.0002 19C29.0894 19 28.2355 19.2435 27.5 19.669C26.7646 19.2436 25.9108 19.0001 25 19.0001C22.2386 19.0001 20 21.2386 20 24.0001V26.0001H19.5ZM30 26.0001V24.0001C30 23.3043 29.8579 22.6418 29.6011 22.0398C29.7301 22.0137 29.8635 22 30.0002 22C31.1048 22 32.0002 22.8954 32.0002 24V26.0001H30ZM27 24.0001V26.0001H23V24.0001C23 22.8955 23.8954 22.0001 25 22.0001C26.1046 22.0001 27 22.8955 27 24.0001ZM20 51.5V45.5019C20.7696 45.8228 21.6141 46.0001 22.5 46.0001H23V51.5C23 52.2758 23.589 52.9141 24.3442 52.992C25.1702 50.6658 27.3905 49 30 49C32.6124 49 34.8349 50.6696 35.6586 53H40.3414C41.1651 50.6696 43.3876 49 46 49V27.5C46 26.6716 45.3284 26 44.5 26H38.6632C38.3174 25.2722 37.7279 24.6827 37.0002 24.337V24C37.0002 23.6605 36.976 23.3266 36.9293 23H44.5C46.9853 23 49 25.0147 49 27.5V29H52.1015C53.8405 29 55.4239 30.002 56.1683 31.5736L59.5668 38.7482C59.852 39.3504 60 40.0083 60 40.6746V51.5C60 53.9853 57.9853 56 55.5 56H51.917C51.441 58.8377 48.973 61 46 61C43.027 61 40.559 58.8377 40.083 56H35.917C35.441 58.8377 32.973 61 30 61C27.0202 61 24.5478 58.8279 24.0797 55.9806C21.7915 55.7687 20 53.8436 20 51.5ZM51.6586 53H55.5C56.3284 53 57 52.3284 57 51.5V51.0001H54.5C53.6716 51.0001 53 50.3285 53 49.5001C53 48.6717 53.6716 48.0001 54.5 48.0001H57V42L49 42V49.8027C50.2271 50.5125 51.1795 51.6445 51.6586 53ZM49 32V39L56.3665 39L53.4571 32.8579C53.209 32.334 52.6812 32 52.1015 32H49ZM30 58C31.6569 58 33 56.6569 33 55C33 53.3431 31.6569 52 30 52C28.3431 52 27 53.3431 27 55C27 56.6569 28.3431 58 30 58ZM49 55C49 53.3431 47.6569 52 46 52C44.3431 52 43 53.3431 43 55C43 56.6569 44.3431 58 46 58C47.6569 58 49 56.6569 49 55ZM23 24.0001C23 23.716 23.0592 23.4457 23.166 23.201L23 24.0001Z" fill="#828388"/>
</svg>
