<svg width="18" height="19" viewBox="0 0 18 19" fill="none" xmlns="http://www.w3.org/2000/svg">
<path d="M7.54952 0.529942C8.38743 -0.176648 9.61257 -0.176647 10.4505 0.529943L17.2005 6.22205C17.7074 6.64956 18 7.27895 18 7.94211L18 17.252C18 18.2185 17.2165 19.002 16.25 19.002H12.75C11.7835 19.002 11 18.2185 11 17.252L11 12.2449C11 12.1068 10.8881 11.9949 10.75 11.9949H7.24999C7.11192 11.9949 6.99999 12.1068 6.99999 12.2449L6.99999 17.252C6.99999 18.2185 6.2165 19.002 5.25 19.002H1.75C0.783502 19.002 0 18.2185 0 17.252V7.94211C0 7.27895 0.292551 6.64956 0.799517 6.22205L7.54952 0.529942ZM9.48349 1.67665C9.20419 1.44112 8.79581 1.44112 8.5165 1.67665L1.76651 7.36876C1.59752 7.51126 1.5 7.72106 1.5 7.94211L1.5 17.252C1.5 17.39 1.61193 17.502 1.75 17.502H5.25C5.38807 17.502 5.49999 17.39 5.49999 17.252L5.49999 12.2449C5.49999 11.2784 6.2835 10.4949 7.24999 10.4949H10.75C11.7165 10.4949 12.5 11.2784 12.5 12.2449L12.5 17.252C12.5 17.39 12.6119 17.502 12.75 17.502H16.25C16.3881 17.502 16.5 17.39 16.5 17.252L16.5 7.94211C16.5 7.72106 16.4025 7.51126 16.2335 7.36876L9.48349 1.67665Z" fill="#0B7E63"/>
</svg>
