<svg width="84" height="72" viewBox="0 0 84 72" fill="none" xmlns="http://www.w3.org/2000/svg">
<path d="M41.9991 4.875C39.4617 4.87415 36.9679 5.53343 34.7624 6.78807C32.557 8.04271 30.716 9.84953 29.4202 12.031C28.1244 14.2125 27.4184 16.6936 27.3716 19.2305C27.3249 21.7673 27.9389 24.2727 29.1534 26.5005L27.4228 32.5699C27.3619 32.783 27.3603 33.0087 27.4181 33.2227C27.4759 33.4366 27.591 33.6308 27.751 33.7842C27.9109 33.9377 28.1097 34.0446 28.3259 34.0935C28.5421 34.1423 28.7675 34.1313 28.9779 34.0616L34.6768 32.1628C36.6192 33.2852 38.7937 33.9458 41.0321 34.0933C43.2706 34.2409 45.513 33.8715 47.5859 33.0138C49.6588 32.1561 51.5066 30.833 52.9863 29.1469C54.4661 27.4609 55.5381 25.457 56.1195 23.2903C56.7009 21.1236 56.776 18.8522 56.3392 16.6519C55.9023 14.4515 54.9651 12.3811 53.6001 10.6009C52.235 8.82066 50.4788 7.37832 48.4671 6.38544C46.4555 5.39256 44.2424 4.87575 41.9991 4.875Z" fill="url(#paint0_linear_1608_4954)"/>
<path d="M37.125 17.0625C37.125 16.7393 37.2534 16.4293 37.482 16.2007C37.7105 15.9722 38.0205 15.8438 38.3438 15.8438H45.6562C45.9795 15.8438 46.2895 15.9722 46.518 16.2007C46.7466 16.4293 46.875 16.7393 46.875 17.0625C46.875 17.3857 46.7466 17.6957 46.518 17.9243C46.2895 18.1528 45.9795 18.2812 45.6562 18.2812H38.3438C38.0205 18.2812 37.7105 18.1528 37.482 17.9243C37.2534 17.6957 37.125 17.3857 37.125 17.0625ZM38.3438 20.7188H43.2188C43.542 20.7188 43.852 20.8472 44.0805 21.0757C44.3091 21.3043 44.4375 21.6143 44.4375 21.9375C44.4375 22.2607 44.3091 22.5707 44.0805 22.7993C43.852 23.0278 43.542 23.1562 43.2188 23.1562H38.3438C38.0205 23.1562 37.7105 23.0278 37.482 22.7993C37.2534 22.5707 37.125 22.2607 37.125 21.9375C37.125 21.6143 37.2534 21.3043 37.482 21.0757C37.7105 20.8472 38.0205 20.7188 38.3438 20.7188Z" fill="url(#paint1_linear_1608_4954)"/>
<path d="M5.79785 68V55.3174H7.63477L11.9766 65.9082H12.1172L16.459 55.3174H18.2959V68H16.8193V58.3057H16.0459L17.8213 55.6689L12.7148 68H11.3789L6.28125 55.6689L8.04785 58.3057H7.27441V68H5.79785ZM25.1602 68.167C24.2578 68.167 23.4844 67.9678 22.8398 67.5693C22.1953 67.1709 21.6973 66.6084 21.3457 65.8818C21 65.1553 20.8271 64.2969 20.8271 63.3066V63.2979C20.8271 62.3193 21 61.4609 21.3457 60.7227C21.6973 59.9844 22.1895 59.4102 22.8223 59C23.4609 58.584 24.208 58.376 25.0635 58.376C25.9248 58.376 26.6631 58.5752 27.2783 58.9736C27.8994 59.3662 28.374 59.9199 28.7021 60.6348C29.0361 61.3438 29.2031 62.1699 29.2031 63.1133V63.7109H21.6182V62.4893H28.4209L27.665 63.6055V62.999C27.665 62.2549 27.5537 61.6426 27.3311 61.1621C27.1084 60.6816 26.8008 60.3242 26.4082 60.0898C26.0156 59.8555 25.5645 59.7383 25.0547 59.7383C24.5449 59.7383 24.0908 59.8613 23.6924 60.1074C23.2939 60.3535 22.9775 60.7197 22.7432 61.2061C22.5088 61.6924 22.3916 62.29 22.3916 62.999V63.6055C22.3916 64.2793 22.5059 64.8535 22.7344 65.3281C22.9629 65.8027 23.2852 66.1689 23.7012 66.4268C24.123 66.6787 24.6211 66.8047 25.1953 66.8047C25.623 66.8047 25.9951 66.7461 26.3115 66.6289C26.6279 66.5117 26.8887 66.3623 27.0938 66.1807C27.2988 65.999 27.4424 65.8115 27.5244 65.6182L27.5596 65.5391H29.0889L29.0713 65.6094C28.9893 65.9375 28.8428 66.2539 28.6318 66.5586C28.4268 66.8574 28.1572 67.1299 27.8232 67.376C27.4951 67.6162 27.1084 67.8096 26.6631 67.9561C26.2178 68.0967 25.7168 68.167 25.1602 68.167ZM34.8018 68.167C34.0986 68.167 33.4775 68.0615 32.9385 67.8506C32.3994 67.6338 31.9658 67.332 31.6377 66.9453C31.3154 66.5527 31.125 66.0957 31.0664 65.5742H32.6309C32.7598 65.9727 33.0088 66.292 33.3779 66.5322C33.7529 66.7725 34.2451 66.8926 34.8545 66.8926C35.2764 66.8926 35.6484 66.8311 35.9707 66.708C36.2988 66.5791 36.5537 66.4062 36.7354 66.1895C36.9229 65.9727 37.0166 65.7207 37.0166 65.4336V65.416C37.0166 65.0938 36.8877 64.8213 36.6299 64.5986C36.3779 64.3701 35.9619 64.1855 35.3818 64.0449L33.9141 63.6934C33.3223 63.5527 32.8359 63.3711 32.4551 63.1484C32.0742 62.9199 31.793 62.6416 31.6113 62.3135C31.4297 61.9795 31.3389 61.5869 31.3389 61.1357V61.127C31.3389 60.5996 31.4912 60.1279 31.7959 59.7119C32.1064 59.2959 32.5254 58.9707 33.0527 58.7363C33.5859 58.4961 34.1865 58.376 34.8545 58.376C35.5166 58.376 36.1025 58.4814 36.6123 58.6924C37.1279 58.8975 37.541 59.1934 37.8516 59.5801C38.168 59.9609 38.3584 60.4062 38.4229 60.916V60.9248H36.9287H36.9199C36.8262 60.5439 36.6006 60.2363 36.2432 60.002C35.8857 59.7676 35.4199 59.6504 34.8457 59.6504C34.4707 59.6504 34.1367 59.7119 33.8438 59.835C33.5566 59.9521 33.3281 60.1162 33.1582 60.3271C32.9883 60.5322 32.9033 60.7754 32.9033 61.0566V61.0742C32.9033 61.2852 32.959 61.4727 33.0703 61.6367C33.1816 61.8008 33.3516 61.9443 33.5801 62.0674C33.8145 62.1904 34.1162 62.2988 34.4854 62.3926L35.9443 62.7441C36.835 62.9609 37.4971 63.2715 37.9307 63.6758C38.3643 64.0801 38.5811 64.6221 38.5811 65.3018V65.3193C38.5811 65.876 38.4141 66.3711 38.0801 66.8047C37.752 67.2324 37.3008 67.5664 36.7266 67.8066C36.1582 68.0469 35.5166 68.167 34.8018 68.167ZM44.0127 68.167C43.3096 68.167 42.6885 68.0615 42.1494 67.8506C41.6104 67.6338 41.1768 67.332 40.8486 66.9453C40.5264 66.5527 40.3359 66.0957 40.2773 65.5742H41.8418C41.9707 65.9727 42.2197 66.292 42.5889 66.5322C42.9639 66.7725 43.4561 66.8926 44.0654 66.8926C44.4873 66.8926 44.8594 66.8311 45.1816 66.708C45.5098 66.5791 45.7646 66.4062 45.9463 66.1895C46.1338 65.9727 46.2275 65.7207 46.2275 65.4336V65.416C46.2275 65.0938 46.0986 64.8213 45.8408 64.5986C45.5889 64.3701 45.1729 64.1855 44.5928 64.0449L43.125 63.6934C42.5332 63.5527 42.0469 63.3711 41.666 63.1484C41.2852 62.9199 41.0039 62.6416 40.8223 62.3135C40.6406 61.9795 40.5498 61.5869 40.5498 61.1357V61.127C40.5498 60.5996 40.7021 60.1279 41.0068 59.7119C41.3174 59.2959 41.7363 58.9707 42.2637 58.7363C42.7969 58.4961 43.3975 58.376 44.0654 58.376C44.7275 58.376 45.3135 58.4814 45.8232 58.6924C46.3389 58.8975 46.752 59.1934 47.0625 59.5801C47.3789 59.9609 47.5693 60.4062 47.6338 60.916V60.9248H46.1396H46.1309C46.0371 60.5439 45.8115 60.2363 45.4541 60.002C45.0967 59.7676 44.6309 59.6504 44.0566 59.6504C43.6816 59.6504 43.3477 59.7119 43.0547 59.835C42.7676 59.9521 42.5391 60.1162 42.3691 60.3271C42.1992 60.5322 42.1143 60.7754 42.1143 61.0566V61.0742C42.1143 61.2852 42.1699 61.4727 42.2812 61.6367C42.3926 61.8008 42.5625 61.9443 42.791 62.0674C43.0254 62.1904 43.3271 62.2988 43.6963 62.3926L45.1553 62.7441C46.0459 62.9609 46.708 63.2715 47.1416 63.6758C47.5752 64.0801 47.792 64.6221 47.792 65.3018V65.3193C47.792 65.876 47.625 66.3711 47.291 66.8047C46.9629 67.2324 46.5117 67.5664 45.9375 67.8066C45.3691 68.0469 44.7275 68.167 44.0127 68.167ZM52.749 68.167C52.1514 68.167 51.6123 68.0527 51.1318 67.8242C50.6572 67.5957 50.2822 67.2705 50.0068 66.8486C49.7314 66.4268 49.5938 65.9287 49.5938 65.3545V65.3369C49.5938 64.7803 49.7285 64.3027 49.998 63.9043C50.2676 63.5 50.6572 63.1836 51.167 62.9551C51.6826 62.7266 52.3066 62.5918 53.0391 62.5508L56.5195 62.3398V63.5615L53.2236 63.7725C52.5088 63.8135 51.9844 63.9629 51.6504 64.2207C51.3223 64.4785 51.1582 64.8389 51.1582 65.3018V65.3193C51.1582 65.7998 51.3369 66.1748 51.6943 66.4443C52.0576 66.708 52.5146 66.8398 53.0654 66.8398C53.5869 66.8398 54.0498 66.7373 54.4541 66.5322C54.8584 66.3213 55.1748 66.0371 55.4033 65.6797C55.6377 65.3223 55.7549 64.918 55.7549 64.4668V61.5312C55.7549 60.9453 55.5762 60.5 55.2188 60.1953C54.8672 59.8848 54.3369 59.7295 53.6279 59.7295C53.0596 59.7295 52.5938 59.832 52.2305 60.0371C51.8672 60.2363 51.624 60.5234 51.501 60.8984L51.4922 60.9248H49.9717L49.9805 60.8721C50.0566 60.374 50.2588 59.9375 50.5869 59.5625C50.9209 59.1875 51.3516 58.8975 51.8789 58.6924C52.4062 58.4814 53.0068 58.376 53.6807 58.376C54.4541 58.376 55.1074 58.502 55.6406 58.7539C56.1738 59.0059 56.5811 59.3662 56.8623 59.835C57.1436 60.3037 57.2842 60.8662 57.2842 61.5225V68H55.7549V66.6025H55.6143C55.415 66.9365 55.1719 67.2207 54.8848 67.4551C54.6035 67.6895 54.2842 67.8682 53.9268 67.9912C53.5693 68.1084 53.1768 68.167 52.749 68.167ZM63.9463 71.3398C63.1846 71.3398 62.5195 71.2314 61.9512 71.0146C61.3828 70.8037 60.9287 70.502 60.5889 70.1094C60.2549 69.7227 60.0469 69.2715 59.9648 68.7559L59.9736 68.7471H61.5557L61.5645 68.7559C61.6523 69.1133 61.9014 69.4062 62.3115 69.6348C62.7217 69.8691 63.2666 69.9863 63.9463 69.9863C64.79 69.9863 65.4492 69.793 65.9238 69.4062C66.4043 69.0195 66.6445 68.4775 66.6445 67.7803V65.8994H66.5039C66.3047 66.2451 66.0557 66.541 65.7568 66.7871C65.458 67.0332 65.1211 67.2207 64.7461 67.3496C64.3711 67.4727 63.9668 67.5342 63.5332 67.5342C62.7246 67.5342 62.0215 67.3408 61.4238 66.9541C60.832 66.5615 60.375 66.0225 60.0527 65.3369C59.7305 64.6514 59.5693 63.8633 59.5693 62.9727V62.9551C59.5693 62.0703 59.7305 61.2852 60.0527 60.5996C60.3809 59.9082 60.8438 59.3662 61.4414 58.9736C62.0391 58.5752 62.748 58.376 63.5684 58.376C64.0137 58.376 64.4238 58.4463 64.7988 58.5869C65.1738 58.7275 65.5049 58.9268 65.792 59.1846C66.085 59.4424 66.3281 59.75 66.5215 60.1074H66.627V58.543H68.1562V67.8594C68.1562 68.5625 67.9834 69.1748 67.6377 69.6963C67.2979 70.2178 66.8115 70.6221 66.1787 70.9092C65.5459 71.1963 64.8018 71.3398 63.9463 71.3398ZM63.8672 66.1807C64.4531 66.1807 64.9541 66.0459 65.3701 65.7764C65.7861 65.501 66.1055 65.123 66.3281 64.6426C66.5566 64.1621 66.6709 63.6055 66.6709 62.9727V62.9551C66.6709 62.3281 66.5566 61.7715 66.3281 61.2852C66.1055 60.7988 65.7861 60.418 65.3701 60.1426C64.9541 59.8672 64.4531 59.7295 63.8672 59.7295C63.2871 59.7295 62.792 59.8672 62.3818 60.1426C61.9775 60.418 61.667 60.7988 61.4502 61.2852C61.2393 61.7715 61.1338 62.3281 61.1338 62.9551V62.9727C61.1338 63.6055 61.2393 64.1621 61.4502 64.6426C61.667 65.123 61.9775 65.501 62.3818 65.7764C62.792 66.0459 63.2871 66.1807 63.8672 66.1807ZM74.8184 68.167C73.916 68.167 73.1426 67.9678 72.498 67.5693C71.8535 67.1709 71.3555 66.6084 71.0039 65.8818C70.6582 65.1553 70.4854 64.2969 70.4854 63.3066V63.2979C70.4854 62.3193 70.6582 61.4609 71.0039 60.7227C71.3555 59.9844 71.8477 59.4102 72.4805 59C73.1191 58.584 73.8662 58.376 74.7217 58.376C75.583 58.376 76.3213 58.5752 76.9365 58.9736C77.5576 59.3662 78.0322 59.9199 78.3604 60.6348C78.6943 61.3438 78.8613 62.1699 78.8613 63.1133V63.7109H71.2764V62.4893H78.0791L77.3232 63.6055V62.999C77.3232 62.2549 77.2119 61.6426 76.9893 61.1621C76.7666 60.6816 76.459 60.3242 76.0664 60.0898C75.6738 59.8555 75.2227 59.7383 74.7129 59.7383C74.2031 59.7383 73.749 59.8613 73.3506 60.1074C72.9521 60.3535 72.6357 60.7197 72.4014 61.2061C72.167 61.6924 72.0498 62.29 72.0498 62.999V63.6055C72.0498 64.2793 72.1641 64.8535 72.3926 65.3281C72.6211 65.8027 72.9434 66.1689 73.3594 66.4268C73.7812 66.6787 74.2793 66.8047 74.8535 66.8047C75.2812 66.8047 75.6533 66.7461 75.9697 66.6289C76.2861 66.5117 76.5469 66.3623 76.752 66.1807C76.957 65.999 77.1006 65.8115 77.1826 65.6182L77.2178 65.5391H78.7471L78.7295 65.6094C78.6475 65.9375 78.501 66.2539 78.29 66.5586C78.085 66.8574 77.8154 67.1299 77.4814 67.376C77.1533 67.6162 76.7666 67.8096 76.3213 67.9561C75.876 68.0967 75.375 68.167 74.8184 68.167Z" fill="#0B0B0B"/>
<defs>
<linearGradient id="paint0_linear_1608_4954" x1="28.4198" y1="10.3594" x2="53.955" y2="53.8956" gradientUnits="userSpaceOnUse">
<stop stop-color="#0FAFFF"/>
<stop offset="1" stop-color="#CC23D1"/>
</linearGradient>
<linearGradient id="paint1_linear_1608_4954" x1="37.9781" y1="15.9729" x2="38.8995" y2="23.8899" gradientUnits="userSpaceOnUse">
<stop stop-color="#FDFDFD"/>
<stop offset="1" stop-color="#CCEAFF"/>
</linearGradient>
</defs>
</svg>
