<svg width="18" height="20" viewBox="0 0 18 20" fill="none" xmlns="http://www.w3.org/2000/svg">
<path d="M2.55031 2.55022C5.95073 -0.850013 11.4644 -0.850132 14.8648 2.55022C18.2651 5.95057 18.265 11.4643 14.8648 14.8647L13.6773 16.0385C12.8024 16.8972 11.6668 18.0014 10.271 19.351C9.39874 20.1939 8.01505 20.1934 7.14308 19.35L3.65187 15.9545C3.2132 15.5238 2.8461 15.1605 2.55031 14.8647C-0.850103 11.4643 -0.850103 5.95063 2.55031 2.55022ZM13.8032 3.61174C10.9886 0.797118 6.42548 0.797118 3.61085 3.61174C0.796541 6.42639 0.796334 10.9896 3.61085 13.8041L5.09816 15.2709C5.91702 16.0723 6.94646 17.073 8.18605 18.2719C8.47675 18.5531 8.93827 18.553 9.22902 18.2719L12.6236 14.9711C13.0924 14.511 13.4857 14.1217 13.8032 13.8041C16.6179 10.9895 16.6178 6.42637 13.8032 3.61174ZM8.70753 5.48186C10.6402 5.48212 12.2073 7.04919 12.2075 8.98186C12.2075 10.9147 10.6403 12.4816 8.70753 12.4819C6.77454 12.4819 5.20753 10.9149 5.20753 8.98186C5.20773 7.04903 6.77466 5.48186 8.70753 5.48186ZM8.70753 6.98186C7.60309 6.98186 6.70774 7.87746 6.70753 8.98186C6.70753 10.0864 7.60297 10.9819 8.70753 10.9819C9.81189 10.9816 10.7075 10.0863 10.7075 8.98186C10.7073 7.87762 9.81176 6.98211 8.70753 6.98186Z" fill="#888888"/>
</svg>
