<svg width="32" height="34" viewBox="0 0 32 34" fill="none" xmlns="http://www.w3.org/2000/svg">
<path d="M26.4265 10H29.0703L29.5275 9.41486C30.3674 8.3398 30.1768 6.78739 29.1017 5.94746L22.1597 0.523774C21.0847 -0.316158 19.5322 -0.125546 18.6923 0.949517L18.3865 1.34094L18.3941 1.34687L11.6335 10H14.2651L20.334 2.23214C20.4656 2.06376 20.7087 2.03391 20.8771 2.16546L22.832 3.69283L17.9043 10H20.5481L24.4737 4.97546L27.8191 7.58915C27.9875 7.7207 28.0173 7.96385 27.8858 8.13223L26.4265 10ZM3.54167 6.66667H12.1228L10.4951 8.75H3.54167C2.73625 8.75 2.08333 9.40292 2.08333 10.2083C2.08333 11.0137 2.73625 11.6667 3.54167 11.6667H26.4583C29.3348 11.6667 31.6667 13.9985 31.6667 16.875V28.125C31.6667 31.0015 29.3348 33.3333 26.4583 33.3333H5.20833C2.33185 33.3333 0 31.0015 0 28.125V10.2083C0 8.25233 1.58566 6.66667 3.54167 6.66667ZM2.08333 28.125C2.08333 29.8509 3.48244 31.25 5.20833 31.25H26.4583C28.1842 31.25 29.5833 29.8509 29.5833 28.125V16.875C29.5833 15.1491 28.1842 13.75 26.4583 13.75H3.54167C3.02179 13.75 2.52807 13.638 2.08333 13.4368V28.125ZM22.7083 21.6667C22.133 21.6667 21.6667 22.133 21.6667 22.7083C21.6667 23.2836 22.133 23.75 22.7083 23.75H26.4583C27.0336 23.75 27.5 23.2836 27.5 22.7083C27.5 22.133 27.0336 21.6667 26.4583 21.6667H22.7083Z" fill="#5E6060"/>
</svg>
