<svg width="76" height="80" viewBox="0 0 76 80" fill="none" xmlns="http://www.w3.org/2000/svg">
<g opacity="0.8">
<ellipse cx="38" cy="40" rx="38" ry="40" fill="#828388" fill-opacity="0.1"/>
<path d="M47.5136 35.6057C48.1243 35.046 48.1655 34.0971 47.6057 33.4864C47.0459 32.8757 46.0971 32.8345 45.4864 33.3943L34.5451 43.4238L30.5607 39.4394C29.9749 38.8536 29.0251 38.8536 28.4393 39.4394C27.8536 40.0251 27.8536 40.9749 28.4393 41.5607L33.4393 46.5607C34.0072 47.1285 34.9216 47.1484 35.5136 46.6057L47.5136 35.6057ZM54.5 27C49.1732 27 43.9841 25.113 38.9 21.3C38.3667 20.9 37.6333 20.9 37.1 21.3C32.0159 25.113 26.8268 27 21.5 27C20.6716 27 20 27.6716 20 28.5V39C20 49.0024 25.9151 56.3515 37.4502 60.8956C37.8035 61.0348 38.1965 61.0348 38.5498 60.8956C50.0849 56.3515 56 49.0024 56 39V28.5C56 27.6716 55.3284 27 54.5 27ZM23 29.9559C28.1547 29.6517 33.1617 27.7766 38 24.3556C42.8383 27.7766 47.8453 29.6517 53 29.9559V39C53 47.5112 48.0933 53.7578 38 57.8838C27.9067 53.7578 23 47.5112 23 39V29.9559Z" fill="#828388"/>
</g>
</svg>
