<svg width="30" height="30" viewBox="0 0 30 30" fill="none" xmlns="http://www.w3.org/2000/svg">
<mask id="mask0_1495_2423" style="mask-type:alpha" maskUnits="userSpaceOnUse" x="0" y="0" width="30" height="30">
<rect width="30" height="30" fill="#D9D9D9"/>
</mask>
<g mask="url(#mask0_1495_2423)">
<path d="M22.1634 29.718H9.01437V13.671L17.3078 4.85059L18.3653 5.98189C18.4951 6.12075 18.6029 6.30462 18.6887 6.53351C18.7744 6.7624 18.8172 6.97803 18.8172 7.1804V7.51972L17.4903 13.671H25.8653C26.4599 13.671 26.9851 13.915 27.4409 14.4029C27.897 14.8905 28.125 15.4524 28.125 16.0884V18.2484C28.125 18.3873 28.1081 18.5373 28.0744 18.6984C28.0408 18.8595 28.0032 19.0097 27.9616 19.1487L24.3797 28.1905C24.2003 28.6191 23.8999 28.9808 23.4784 29.2757C23.057 29.5705 22.6186 29.718 22.1634 29.718ZM10.8894 27.7121H22.1634C22.2516 27.7121 22.3417 27.6864 22.4338 27.6349C22.526 27.5834 22.5963 27.4977 22.6444 27.3778L26.25 18.3514V16.0884C26.25 15.9683 26.214 15.8697 26.1419 15.7926C26.0698 15.7155 25.9776 15.6769 25.8653 15.6769H15.1203L16.6875 8.34781L10.8894 14.5249V27.7121ZM9.01437 13.671V15.6769H5V27.7121H9.01437V29.718H3.125V13.671H9.01437Z" fill="#242424"/>
</g>
</svg>
