<svg width="31" height="30" viewBox="0 0 31 30" fill="none" xmlns="http://www.w3.org/2000/svg">
<path d="M21.875 16.6667C21.2997 16.6667 20.8333 17.133 20.8333 17.7083C20.8333 18.2836 21.2997 18.75 21.875 18.75H25.625C26.2003 18.75 26.6667 18.2836 26.6667 17.7083C26.6667 17.133 26.2003 16.6667 25.625 16.6667H21.875ZM0 3.33333V24.7917C0 27.6682 2.33185 30 5.20833 30H25.625C28.5015 30 30.8333 27.6682 30.8333 24.7917V10.2083C30.8333 7.68859 29.044 5.58676 26.6667 5.10419V3.54167C26.6667 1.58566 25.081 0 23.125 0H3.54167C1.65559 0 0.113863 1.4743 0.00602575 3.33333H0ZM24.5833 3.54167V5H3.54167C2.73625 5 2.08333 4.34708 2.08333 3.54167C2.08333 2.73625 2.73625 2.08333 3.54167 2.08333H23.125C23.9304 2.08333 24.5833 2.73625 24.5833 3.54167ZM2.08333 7.08333H25.625C27.3509 7.08333 28.75 8.48244 28.75 10.2083V24.7917C28.75 26.5176 27.3509 27.9167 25.625 27.9167H5.20833C3.48244 27.9167 2.08333 26.5176 2.08333 24.7917V7.08333Z" fill="#5E6060"/>
</svg>
