<svg width="84" height="71" viewBox="0 0 84 71" fill="none" xmlns="http://www.w3.org/2000/svg">
<g clip-path="url(#clip0_1608_4948)">
<path d="M23.3327 19.2665C23.3318 22.5432 24.1946 25.7427 25.8353 28.5628L23.1758 38.1983L33.113 35.6128C35.8616 37.0975 38.9411 37.8754 42.0705 37.8757H42.0787C52.4094 37.8757 60.8189 29.5341 60.8233 19.2811C60.8253 14.3129 58.8772 9.64104 55.3378 6.1262C51.799 2.61167 47.0925 0.675119 42.0779 0.672852C31.746 0.672852 23.3371 9.01401 23.3328 19.2665" fill="url(#paint0_linear_1608_4948)"/>
<path d="M22.665 19.2606C22.6639 22.6552 23.5576 25.9692 25.2568 28.8902L22.502 38.8711L32.7955 36.1929C35.6317 37.7274 38.825 38.5364 42.0744 38.5376H42.0827C52.7841 38.5376 61.4957 29.8959 61.5002 19.276C61.5021 14.1292 59.4839 9.28941 55.8181 5.64865C52.1518 2.00835 47.277 0.00211628 42.0827 0C31.3795 0 22.6692 8.64046 22.665 19.2606ZM28.7951 28.3872L28.4108 27.7818C26.7951 25.2325 25.9423 22.2867 25.9436 19.2618C25.9469 10.4346 33.1866 3.25302 42.0888 3.25302C46.4 3.25484 50.4515 4.92246 53.4989 7.94814C56.5461 10.9741 58.2229 14.9966 58.2218 19.2748C58.2178 28.1019 50.978 35.2844 42.0827 35.2844H42.0763C39.18 35.2829 36.3393 34.5111 33.862 33.0525L33.2725 32.7056L27.1641 34.2948L28.7951 28.3872Z" fill="url(#paint1_linear_1608_4948)"/>
<path d="M37.2285 11.2083C36.865 10.4067 36.4825 10.3905 36.1369 10.3764C35.8538 10.3643 35.5302 10.3652 35.207 10.3652C34.8834 10.3652 34.3577 10.486 33.9133 10.9675C33.4685 11.4494 32.2151 12.6139 32.2151 14.9825C32.2151 17.3511 33.9537 19.6403 34.1961 19.9618C34.4388 20.2827 37.5525 25.2989 42.484 27.2287C46.5825 28.8324 47.4165 28.5134 48.306 28.433C49.1956 28.3529 51.1766 27.2687 51.5808 26.1445C51.9852 25.0205 51.9852 24.057 51.864 23.8556C51.7427 23.655 51.4192 23.5346 50.934 23.2939C50.4488 23.0532 48.0633 21.8884 47.6186 21.7277C47.1738 21.5672 46.8504 21.4871 46.5268 21.9691C46.2033 22.4504 45.2742 23.5346 44.991 23.8556C44.7081 24.1774 44.4249 24.2175 43.9399 23.9767C43.4544 23.7351 41.8918 23.2274 40.0381 21.5874C38.5957 20.3113 37.622 18.7354 37.3389 18.2534C37.0559 17.7721 37.3086 17.5112 37.5519 17.2713C37.7699 17.0556 38.0373 16.7091 38.2801 16.4281C38.522 16.1469 38.6027 15.9463 38.7645 15.6253C38.9264 15.3039 38.8454 15.0227 38.7243 14.7819C38.6027 14.5411 37.6599 12.1602 37.2285 11.2083Z" fill="white"/>
</g>
<path d="M3.58301 67L0.128906 54.3174H1.78125L4.30371 64.6357H4.40918L7.24805 54.3174H8.84766L11.6865 64.6357H11.792L14.3145 54.3174H15.9668L12.5127 67H11.0186L8.10059 56.9805H7.99512L5.07715 67H3.58301ZM18.2344 67V53.79H19.7637V58.9668H19.8955C20.1357 58.4629 20.4814 58.0732 20.9326 57.7979C21.3896 57.5166 21.9668 57.376 22.6641 57.376C23.3672 57.376 23.9648 57.5137 24.457 57.7891C24.9492 58.0586 25.3242 58.457 25.582 58.9844C25.8398 59.5059 25.9688 60.1416 25.9688 60.8916V67H24.4395V61.252C24.4395 60.3965 24.2578 59.7637 23.8945 59.3535C23.5371 58.9375 22.9805 58.7295 22.2246 58.7295C21.7207 58.7295 21.2842 58.8379 20.915 59.0547C20.5518 59.2715 20.2676 59.5791 20.0625 59.9775C19.8633 60.376 19.7637 60.8506 19.7637 61.4014V67H18.2344ZM31.2949 67.167C30.6973 67.167 30.1582 67.0527 29.6777 66.8242C29.2031 66.5957 28.8281 66.2705 28.5527 65.8486C28.2773 65.4268 28.1396 64.9287 28.1396 64.3545V64.3369C28.1396 63.7803 28.2744 63.3027 28.5439 62.9043C28.8135 62.5 29.2031 62.1836 29.7129 61.9551C30.2285 61.7266 30.8525 61.5918 31.585 61.5508L35.0654 61.3398V62.5615L31.7695 62.7725C31.0547 62.8135 30.5303 62.9629 30.1963 63.2207C29.8682 63.4785 29.7041 63.8389 29.7041 64.3018V64.3193C29.7041 64.7998 29.8828 65.1748 30.2402 65.4443C30.6035 65.708 31.0605 65.8398 31.6113 65.8398C32.1328 65.8398 32.5957 65.7373 33 65.5322C33.4043 65.3213 33.7207 65.0371 33.9492 64.6797C34.1836 64.3223 34.3008 63.918 34.3008 63.4668V60.5312C34.3008 59.9453 34.1221 59.5 33.7646 59.1953C33.4131 58.8848 32.8828 58.7295 32.1738 58.7295C31.6055 58.7295 31.1396 58.832 30.7764 59.0371C30.4131 59.2363 30.1699 59.5234 30.0469 59.8984L30.0381 59.9248H28.5176L28.5264 59.8721C28.6025 59.374 28.8047 58.9375 29.1328 58.5625C29.4668 58.1875 29.8975 57.8975 30.4248 57.6924C30.9521 57.4814 31.5527 57.376 32.2266 57.376C33 57.376 33.6533 57.502 34.1865 57.7539C34.7197 58.0059 35.127 58.3662 35.4082 58.835C35.6895 59.3037 35.8301 59.8662 35.8301 60.5225V67H34.3008V65.6025H34.1602C33.9609 65.9365 33.7178 66.2207 33.4307 66.4551C33.1494 66.6895 32.8301 66.8682 32.4727 66.9912C32.1152 67.1084 31.7227 67.167 31.2949 67.167ZM41.9385 67.0791C40.9717 67.0791 40.2686 66.8828 39.8291 66.4902C39.3955 66.0918 39.1787 65.4443 39.1787 64.5479V58.8086H37.6934V57.543H39.1787V55.0908H40.7607V57.543H42.8174V58.8086H40.7607V64.1787C40.7607 64.7295 40.8662 65.125 41.0771 65.3652C41.2881 65.6055 41.6367 65.7256 42.123 65.7256C42.2578 65.7256 42.3721 65.7227 42.4658 65.7168C42.5654 65.7109 42.6826 65.7021 42.8174 65.6904V66.9912C42.6768 67.0146 42.5332 67.0352 42.3867 67.0527C42.2402 67.0703 42.0908 67.0791 41.9385 67.0791ZM48.1523 67.167C47.4492 67.167 46.8281 67.0615 46.2891 66.8506C45.75 66.6338 45.3164 66.332 44.9883 65.9453C44.666 65.5527 44.4756 65.0957 44.417 64.5742H45.9814C46.1104 64.9727 46.3594 65.292 46.7285 65.5322C47.1035 65.7725 47.5957 65.8926 48.2051 65.8926C48.627 65.8926 48.999 65.8311 49.3213 65.708C49.6494 65.5791 49.9043 65.4062 50.0859 65.1895C50.2734 64.9727 50.3672 64.7207 50.3672 64.4336V64.416C50.3672 64.0938 50.2383 63.8213 49.9805 63.5986C49.7285 63.3701 49.3125 63.1855 48.7324 63.0449L47.2646 62.6934C46.6729 62.5527 46.1865 62.3711 45.8057 62.1484C45.4248 61.9199 45.1436 61.6416 44.9619 61.3135C44.7803 60.9795 44.6895 60.5869 44.6895 60.1357V60.127C44.6895 59.5996 44.8418 59.1279 45.1465 58.7119C45.457 58.2959 45.876 57.9707 46.4033 57.7363C46.9365 57.4961 47.5371 57.376 48.2051 57.376C48.8672 57.376 49.4531 57.4814 49.9629 57.6924C50.4785 57.8975 50.8916 58.1934 51.2021 58.5801C51.5186 58.9609 51.709 59.4062 51.7734 59.916V59.9248H50.2793H50.2705C50.1768 59.5439 49.9512 59.2363 49.5938 59.002C49.2363 58.7676 48.7705 58.6504 48.1963 58.6504C47.8213 58.6504 47.4873 58.7119 47.1943 58.835C46.9072 58.9521 46.6787 59.1162 46.5088 59.3271C46.3389 59.5322 46.2539 59.7754 46.2539 60.0566V60.0742C46.2539 60.2852 46.3096 60.4727 46.4209 60.6367C46.5322 60.8008 46.7021 60.9443 46.9307 61.0674C47.165 61.1904 47.4668 61.2988 47.8359 61.3926L49.2949 61.7441C50.1855 61.9609 50.8477 62.2715 51.2812 62.6758C51.7148 63.0801 51.9316 63.6221 51.9316 64.3018V64.3193C51.9316 64.876 51.7646 65.3711 51.4307 65.8047C51.1025 66.2324 50.6514 66.5664 50.0771 66.8066C49.5088 67.0469 48.8672 67.167 48.1523 67.167ZM56.8887 67.167C56.291 67.167 55.752 67.0527 55.2715 66.8242C54.7969 66.5957 54.4219 66.2705 54.1465 65.8486C53.8711 65.4268 53.7334 64.9287 53.7334 64.3545V64.3369C53.7334 63.7803 53.8682 63.3027 54.1377 62.9043C54.4072 62.5 54.7969 62.1836 55.3066 61.9551C55.8223 61.7266 56.4463 61.5918 57.1787 61.5508L60.6592 61.3398V62.5615L57.3633 62.7725C56.6484 62.8135 56.124 62.9629 55.79 63.2207C55.4619 63.4785 55.2979 63.8389 55.2979 64.3018V64.3193C55.2979 64.7998 55.4766 65.1748 55.834 65.4443C56.1973 65.708 56.6543 65.8398 57.2051 65.8398C57.7266 65.8398 58.1895 65.7373 58.5938 65.5322C58.998 65.3213 59.3145 65.0371 59.543 64.6797C59.7773 64.3223 59.8945 63.918 59.8945 63.4668V60.5312C59.8945 59.9453 59.7158 59.5 59.3584 59.1953C59.0068 58.8848 58.4766 58.7295 57.7676 58.7295C57.1992 58.7295 56.7334 58.832 56.3701 59.0371C56.0068 59.2363 55.7637 59.5234 55.6406 59.8984L55.6318 59.9248H54.1113L54.1201 59.8721C54.1963 59.374 54.3984 58.9375 54.7266 58.5625C55.0605 58.1875 55.4912 57.8975 56.0186 57.6924C56.5459 57.4814 57.1465 57.376 57.8203 57.376C58.5938 57.376 59.2471 57.502 59.7803 57.7539C60.3135 58.0059 60.7207 58.3662 61.002 58.835C61.2832 59.3037 61.4238 59.8662 61.4238 60.5225V67H59.8945V65.6025H59.7539C59.5547 65.9365 59.3115 66.2207 59.0244 66.4551C58.7432 66.6895 58.4238 66.8682 58.0664 66.9912C57.709 67.1084 57.3164 67.167 56.8887 67.167ZM64.1836 70.1641V57.543H65.7129V59.0547H65.8447C66.0381 58.7031 66.2812 58.4043 66.5742 58.1582C66.8672 57.9062 67.2012 57.7129 67.5762 57.5781C67.9512 57.4434 68.3584 57.376 68.7979 57.376C69.6006 57.376 70.2979 57.5781 70.8896 57.9824C71.4873 58.3867 71.9502 58.9551 72.2783 59.6875C72.6064 60.4199 72.7705 61.2783 72.7705 62.2627V62.2803C72.7705 63.2705 72.6064 64.1318 72.2783 64.8643C71.9502 65.5908 71.4873 66.1562 70.8896 66.5605C70.2979 66.9648 69.6006 67.167 68.7979 67.167C68.3643 67.167 67.9541 67.0996 67.5674 66.9648C67.1865 66.8242 66.8467 66.6309 66.5479 66.3848C66.2549 66.1387 66.0205 65.8457 65.8447 65.5059H65.7129V70.1641H64.1836ZM68.4463 65.8135C69.0264 65.8135 69.5215 65.6729 69.9316 65.3916C70.3418 65.1045 70.6553 64.6973 70.8721 64.1699C71.0947 63.6426 71.2061 63.0127 71.2061 62.2803V62.2627C71.2061 61.5244 71.0947 60.8916 70.8721 60.3643C70.6553 59.8369 70.3418 59.4326 69.9316 59.1514C69.5215 58.8701 69.0264 58.7295 68.4463 58.7295C67.8779 58.7295 67.3857 58.873 66.9697 59.1602C66.5537 59.4473 66.2344 59.8545 66.0117 60.3818C65.7891 60.9033 65.6777 61.5303 65.6777 62.2627V62.2803C65.6777 63.001 65.7891 63.6279 66.0117 64.1611C66.2344 64.6885 66.5537 65.0957 66.9697 65.3828C67.3857 65.6699 67.8779 65.8135 68.4463 65.8135ZM75.1172 70.1641V57.543H76.6465V59.0547H76.7783C76.9717 58.7031 77.2148 58.4043 77.5078 58.1582C77.8008 57.9062 78.1348 57.7129 78.5098 57.5781C78.8848 57.4434 79.292 57.376 79.7314 57.376C80.5342 57.376 81.2314 57.5781 81.8232 57.9824C82.4209 58.3867 82.8838 58.9551 83.2119 59.6875C83.54 60.4199 83.7041 61.2783 83.7041 62.2627V62.2803C83.7041 63.2705 83.54 64.1318 83.2119 64.8643C82.8838 65.5908 82.4209 66.1562 81.8232 66.5605C81.2314 66.9648 80.5342 67.167 79.7314 67.167C79.2979 67.167 78.8877 67.0996 78.501 66.9648C78.1201 66.8242 77.7803 66.6309 77.4814 66.3848C77.1885 66.1387 76.9541 65.8457 76.7783 65.5059H76.6465V70.1641H75.1172ZM79.3799 65.8135C79.96 65.8135 80.4551 65.6729 80.8652 65.3916C81.2754 65.1045 81.5889 64.6973 81.8057 64.1699C82.0283 63.6426 82.1396 63.0127 82.1396 62.2803V62.2627C82.1396 61.5244 82.0283 60.8916 81.8057 60.3643C81.5889 59.8369 81.2754 59.4326 80.8652 59.1514C80.4551 58.8701 79.96 58.7295 79.3799 58.7295C78.8115 58.7295 78.3193 58.873 77.9033 59.1602C77.4873 59.4473 77.168 59.8545 76.9453 60.3818C76.7227 60.9033 76.6113 61.5303 76.6113 62.2627V62.2803C76.6113 63.001 76.7227 63.6279 76.9453 64.1611C77.168 64.6885 77.4873 65.0957 77.9033 65.3828C78.3193 65.6699 78.8115 65.8135 79.3799 65.8135Z" fill="#0B0B0B"/>
<defs>
<linearGradient id="paint0_linear_1608_4948" x1="1905.55" y1="3753.21" x2="1905.55" y2="0.672852" gradientUnits="userSpaceOnUse">
<stop stop-color="#1FAF38"/>
<stop offset="1" stop-color="#60D669"/>
</linearGradient>
<linearGradient id="paint1_linear_1608_4948" x1="1972.42" y1="3887.11" x2="1972.42" y2="0" gradientUnits="userSpaceOnUse">
<stop stop-color="#F9F9F9"/>
<stop offset="1" stop-color="white"/>
</linearGradient>
<clipPath id="clip0_1608_4948">
<rect width="39" height="39" fill="white" transform="translate(22.5)"/>
</clipPath>
</defs>
</svg>
