<svg width="18" height="18" viewBox="0 0 18 18" fill="none" xmlns="http://www.w3.org/2000/svg">
<path d="M7.25 1.5H10.75C11.1642 1.5 11.5 1.83579 11.5 2.25V4H6.5V2.25C6.5 1.83579 6.83579 1.5 7.25 1.5ZM5 2.25V4H3.25C1.45507 4 0 5.45507 0 7.25V14.75C0 16.5449 1.45507 18 3.25 18H14.75C16.5449 18 18 16.5449 18 14.75V7.25C18 5.45507 16.5449 4 14.75 4H13V2.25C13 1.00736 11.9926 0 10.75 0H7.25C6.00736 0 5 1.00736 5 2.25ZM16.5 7.25V8.75C16.5 9.7165 15.7165 10.5 14.75 10.5H11V10C11 9.44771 10.5523 9 10 9H8C7.44772 9 7 9.44772 7 10V10.5H3.25C2.2835 10.5 1.5 9.7165 1.5 8.75V7.25C1.5 6.2835 2.2835 5.5 3.25 5.5H14.75C15.7165 5.5 16.5 6.2835 16.5 7.25ZM16.5 11.4891V14.75C16.5 15.7165 15.7165 16.5 14.75 16.5H3.25C2.2835 16.5 1.5 15.7165 1.5 14.75V11.4891C2.00515 11.8125 2.60568 12 3.25 12H7C7 12.5523 7.44772 13 8 13H10C10.5523 13 11 12.5523 11 12H14.75C15.3943 12 15.9949 11.8125 16.5 11.4891Z" fill="#888888"/>
</svg>
